HIERARCHY
ROOT Hips
{
	OFFSET 0.00000 0.00000 0.00000
	CHANNELS 6 Xposition Yposition Zposition Zrotation Yrotation Xrotation 
	JOINT LHipJoint
	{
		OFFSET 0 0 0
		CHANNELS 3 Zrotation Yrotation Xrotation
		JOINT LeftHip
		{
			OFFSET 1.58895 -1.83665 0.71753
			CHANNELS 3 Zrotation Yrotation Xrotation
			JOINT LeftKnee
			{
				OFFSET 2.50528 -6.88321 0.00000
				CHANNELS 3 Zrotation Yrotation Xrotation
				JOINT LeftAnkle
				{
					OFFSET 2.63244 -7.23257 0.00000
					CHANNELS 3 Zrotation Yrotation Xrotation
					JOINT LeftToe
					{
						OFFSET 0.23691 -0.65090 1.72750
						CHANNELS 3 Zrotation Yrotation Xrotation
						End Site
						{
							OFFSET 0.00000 -0.00000 0.92561
						}
					}
				}
			}
		}
	}
	JOINT RHipJoint
	{
		OFFSET 0 0 0
		CHANNELS 3 Zrotation Yrotation Xrotation
		JOINT RightHip
		{
			OFFSET -1.51435 -1.83665 0.71753
			CHANNELS 3 Zrotation Yrotation Xrotation
			JOINT RightKnee
			{
				OFFSET -2.54551 -6.99375 0.00000
				CHANNELS 3 Zrotation Yrotation Xrotation
				JOINT RightAnkle
				{
					OFFSET -2.66027 -7.30903 0.00000
					CHANNELS 3 Zrotation Yrotation Xrotation
					JOINT RightToe
					{
						OFFSET -0.22981 -0.63138 2.03959
						CHANNELS 3 Zrotation Yrotation Xrotation
						End Site
						{
							OFFSET -0.00000 -0.00000 1.07060
						}
					}
				}
			}
		}
	}
	JOINT lowerback
	{
		OFFSET 0 0 0
		CHANNELS 3 Zrotation Yrotation Xrotation
		JOINT Chest
		{
			OFFSET -0.02651 1.86275 -0.11152
			CHANNELS 3 Zrotation Yrotation Xrotation
			JOINT Chest2
			{
				OFFSET 0.01019 1.86224 0.04087
				CHANNELS 3 Zrotation Yrotation Xrotation
				JOINT lowerneck
				{
					OFFSET 0 0 0
					CHANNELS 3 Zrotation Yrotation Xrotation
					JOINT Neck
					{
						OFFSET -0.01926 1.80512 0.08867
						CHANNELS 3 Zrotation Yrotation Xrotation
						JOINT Head
						{
							OFFSET 0.05516 1.76451 -0.38475
							CHANNELS 3 Zrotation Yrotation Xrotation
							End Site
							{
								OFFSET 0.01592 1.82587 -0.14001
							}
						}
					}
				}
				JOINT LeftCollar
				{
					OFFSET 0 0 0
					CHANNELS 3 Zrotation Yrotation Xrotation
					JOINT LeftShoulder
					{
						OFFSET 3.47116 1.51376 0.14491
CHANNELS 3 Zrotation Xrotation Yrotation
						JOINT LeftElbow
						{
OFFSET 0 -4.780950 0.000000
CHANNELS 3 Zrotation Xrotation Yrotation
							JOINT LeftWrist
							{
OFFSET 0 -3.586150 -0.000000
CHANNELS 3 Zrotation Xrotation Yrotation
								JOINT lhand
								{
									OFFSET 0 0 0
CHANNELS 3 Zrotation Xrotation Yrotation
									JOINT LFingers
									{
OFFSET 0 -0.659810 0.000000
CHANNELS 3 Zrotation Xrotation Yrotation
										End Site
										{
OFFSET 0 -0.531960 0.000000
										}
									}
								}
								JOINT LThumb
								{
OFFSET 0 0.000000 0.000000
CHANNELS 3 Zrotation Xrotation Yrotation
									End Site
									{
OFFSET 0 -0.540080 0.540080
									}
								}
							}
						}
					}
				}
				JOINT RightCollar
				{
					OFFSET 0 0 0
					CHANNELS 3 Zrotation Yrotation Xrotation
					JOINT RightShoulder
					{
						OFFSET -3.31725 1.61216 0.35156
CHANNELS 3 Zrotation Xrotation Yrotation
						JOINT RightElbow
						{
OFFSET 0 -4.489130 0.000000
CHANNELS 3 Zrotation Xrotation Yrotation
							JOINT RightWrist
							{
OFFSET 0 -3.705100 0.000000
CHANNELS 3 Zrotation Xrotation Yrotation
								JOINT rhand
								{
									OFFSET 0 0 0
CHANNELS 3 Zrotation Xrotation Yrotation
									JOINT RFingers
									{
OFFSET 0 -0.449140 0.000000
CHANNELS 3 Zrotation Xrotation Yrotation
										End Site
										{
OFFSET 0 -0.362110 0.000000
										}
									}
								}
								JOINT RThumb
								{
OFFSET 0 0.000000 0.000000
CHANNELS 3 Zrotation Xrotation Yrotation
									End Site
									{
OFFSET 0 -0.367630 0.367630
									}
								}
							}
						}
					}
				}
			}
		}
	}
}
MOTION
Frames: 13
Frame Time: 0.008333333333333333
-0.559300 18.674600 5.566400 -2.393600 -2.950000 -0.988300 0.000000 0.000000 0.000000 -12.460800 -5.814600 -0.531500 1.323000 7.284500 20.561100 1.488300 5.078800 -25.363800 8.194600 -16.260500 -53.260500 0.000000 0.000000 0.000000 0.000000 0.000000 0.000000 0.000000 0.000000 0.000000 -0.000000 -0.000000 0.000000 -0.000000 -0.000000 0.000000 -0.183500 0.903500 4.706700 0.564000 1.219900 -2.046000 0.579200 0.619900 -4.772000 -0.507700 -1.614700 -12.338300 3.618700 -2.940200 20.419600 0.977500 -1.063000 8.448700 -0.000000 0.000000 0.000000 -0.723500 12.093200 -27.691700 19.958400 -30.592200 5.510200 4.019700 10.545900 25.587100 0.000000 0.000000 0.000000 -7.125000 0.000000 0.000000 -15.500900 5.108400 -14.616300 -0.000000 0.000000 0.000000 -1.759700 18.363100 27.611000 -23.113600 -34.212800 -7.202100 -10.839100 21.048800 28.422500 0.000000 0.000000 0.000000 7.125000 0.000000 -0.000000 21.856400 57.469600 -6.894300
-0.560625 18.675365 5.561595 -2.351771 -2.902751 -0.949510 0.000000 0.000000 0.000000 -12.508942 -5.933316 -0.564605 1.322465 7.283233 20.557138 1.491018 5.092050 -25.390984 8.181378 -16.251075 -53.213499 0.000000 0.000000 0.000000 0.000000 0.000000 0.000000 0.000000 0.000000 0.000000 0.000000 0.000000 0.000000 0.000000 0.000000 0.000000 -0.078760 0.922360 5.073635 0.427948 1.248111 -2.354696 0.368192 0.628412 -5.298224 -0.397993 -1.662983 -12.124627 3.627603 -3.035471 20.514472 0.953401 -1.099964 8.442580 0.000000 0.000000 0.000000 -0.420891 12.627441 -28.004104 20.049702 -30.702112 5.556666 4.052679 10.332061 25.494546 0.000000 0.000000 0.000000 -7.125000 0.000000 0.000000 -15.481693 5.194790 -14.570524 0.000000 0.000000 0.000000 -1.514200 18.881508 27.499039 -23.159761 -34.263029 -7.228036 -11.129380 21.180085 28.456637 0.000000 0.000000 0.000000 7.125000 0.000000 0.000000 21.585511 57.562705 -6.852045
-0.561937 18.675514 5.556554 -2.340363 -2.836252 -0.946187 0.000000 0.000000 0.000000 -12.510657 -5.972003 -0.607583 1.325811 7.291995 20.583421 1.483089 5.116705 -25.345719 8.206024 -16.268746 -53.301486 0.000000 0.000000 0.000000 0.000000 0.000000 0.000000 0.000000 0.000000 0.000000 0.000000 0.000000 0.000000 0.000000 0.000000 0.000000 -0.082701 0.905162 5.183172 0.396850 1.223760 -2.419347 0.338071 0.615933 -5.427599 -0.207716 -1.625340 -12.073050 3.462767 -2.983524 20.444321 0.872221 -1.079077 8.402840 0.000000 0.000000 0.000000 -0.303471 12.753059 -28.114176 20.064658 -30.720157 5.564314 4.157475 10.282942 25.542239 0.000000 0.000000 0.000000 -7.125000 0.000000 0.000000 -15.419418 5.140299 -14.523610 0.000000 0.000000 0.000000 -1.419287 19.035655 27.436382 -23.179729 -34.284795 -7.239334 -10.539301 20.923988 28.345783 0.000000 0.000000 0.000000 7.125000 0.000000 0.000000 22.105623 57.335600 -6.905325
-0.563623 18.674953 5.552307 -2.456626 -2.805459 -0.969323 0.000000 0.000000 0.000000 -12.370088 -5.985141 -0.618698 1.331116 7.305978 20.625052 1.480994 5.112510 -25.327724 8.221213 -16.279572 -53.355458 0.000000 0.000000 0.000000 0.000000 0.000000 0.000000 0.000000 0.000000 0.000000 0.000000 0.000000 0.000000 0.000000 0.000000 0.000000 0.006912 0.891436 5.251047 0.436571 1.214286 -2.421069 0.328879 0.608729 -5.467004 -0.170243 -1.607580 -12.074993 3.318926 -2.930717 20.338539 0.823396 -1.067283 8.363437 0.000000 0.000000 0.000000 -0.288520 12.718694 -28.067967 20.003859 -30.646986 5.533309 4.353957 10.298880 25.627435 0.000000 0.000000 0.000000 -7.125000 0.000000 0.000000 -15.302558 5.041677 -14.434413 0.000000 0.000000 0.000000 -1.401008 19.080248 27.428297 -23.188010 -34.293752 -7.244003 -10.493099 20.967770 28.508248 0.000000 0.000000 0.000000 7.125000 0.000000 0.000000 22.266591 57.475500 -7.035268
-0.564529 18.674958 5.548680 -2.486719 -2.778678 -0.977836 0.000000 0.000000 0.000000 -12.327489 -5.988081 -0.647554 1.335275 7.317024 20.657987 1.485538 5.034868 -25.318318 8.193303 -16.259585 -53.255856 0.000000 0.000000 0.000000 0.000000 0.000000 0.000000 0.000000 0.000000 0.000000 0.000000 0.000000 0.000000 0.000000 0.000000 0.000000 0.007112 0.882271 5.259798 0.463178 1.203373 -2.404852 0.357381 0.603862 -5.455618 -0.368177 -1.608029 -12.060597 3.504189 -2.923045 20.164714 0.918890 -1.062812 8.307819 0.000000 0.000000 0.000000 -0.288821 12.621485 -28.028417 19.941739 -30.572094 5.501690 4.366930 10.365657 25.551025 0.000000 0.000000 0.000000 -7.125000 0.000000 0.000000 -15.295055 5.114287 -14.405006 0.000000 0.000000 0.000000 -1.410086 19.056651 27.424132 -23.172670 -34.277029 -7.235308 -11.533991 21.619186 28.860410 0.000000 0.000000 0.000000 7.125000 0.000000 0.000000 21.458552 58.022938 -7.050533
-0.565688 18.676323 5.543846 -2.442856 -2.755221 -0.957937 0.000000 0.000000 0.000000 -12.370260 -6.032754 -0.690862 1.336808 7.320923 20.669569 1.487416 5.023039 -25.325467 8.185307 -16.253865 -53.227220 0.000000 0.000000 0.000000 0.000000 0.000000 0.000000 0.000000 0.000000 0.000000 0.000000 0.000000 0.000000 0.000000 0.000000 0.000000 -0.063288 0.882988 5.276856 0.470307 1.199496 -2.412745 0.404357 0.604619 -5.475170 -0.398863 -1.596863 -12.034305 3.534998 -2.903552 20.065399 0.936376 -1.054566 8.270097 0.000000 0.000000 0.000000 -0.292821 12.544708 -28.023380 19.903218 -30.525530 5.482065 4.223774 10.430492 25.482161 0.000000 0.000000 0.000000 -7.125000 0.000000 0.000000 -15.380226 5.192712 -14.467953 0.000000 0.000000 0.000000 -1.473397 19.071265 27.510693 -23.181393 -34.286551 -7.240216 -11.340967 21.448777 28.659222 0.000000 0.000000 0.000000 7.125000 0.000000 0.000000 21.512714 57.795093 -6.949860
-0.569774 18.676965 5.537933 -2.498949 -2.732276 -0.914522 0.000000 0.000000 0.000000 -12.277385 -6.041982 -0.770307 1.337388 7.322469 20.674337 1.489693 4.984733 -25.321463 8.188567 -16.256216 -53.239139 0.000000 0.000000 0.000000 0.000000 0.000000 0.000000 0.000000 0.000000 0.000000 0.000000 0.000000 0.000000 0.000000 0.000000 0.000000 -0.050019 0.884251 5.323696 0.493466 1.203664 -2.449580 0.419379 0.606651 -5.540840 -0.308567 -1.571616 -12.019012 3.437221 -2.863578 20.005808 0.892967 -1.039565 8.243668 0.000000 0.000000 0.000000 -0.234982 12.562021 -28.156316 19.941332 -30.571601 5.501492 4.227890 10.338011 25.494152 0.000000 0.000000 0.000000 -7.125000 0.000000 0.000000 -15.377655 5.180739 -14.469008 0.000000 0.000000 0.000000 -1.531535 19.094852 27.660338 -23.169152 -34.273252 -7.233294 -12.360092 21.895646 28.702129 0.000000 0.000000 0.000000 7.125000 0.000000 0.000000 20.500299 58.054780 -6.733004
-0.574008 18.677778 5.534318 -2.561076 -2.732722 -0.878286 0.000000 0.000000 0.000000 -12.183080 -6.053333 -0.821843 1.338351 7.325127 20.682106 1.495315 4.919680 -25.327599 8.163508 -16.238255 -53.149627 0.000000 0.000000 0.000000 0.000000 0.000000 0.000000 0.000000 0.000000 0.000000 0.000000 0.000000 0.000000 0.000000 0.000000 0.000000 -0.023174 0.895493 5.333698 0.513297 1.221946 -2.474480 0.422787 0.615164 -5.572762 -0.233191 -1.541799 -12.026647 3.364361 -2.820936 19.978628 0.860518 -1.021240 8.232852 0.000000 0.000000 0.000000 -0.170698 12.592501 -28.292118 19.988224 -30.628209 5.525400 4.274135 10.259045 25.553781 0.000000 0.000000 0.000000 -7.125000 0.000000 0.000000 -15.350119 5.119344 -14.459460 0.000000 0.000000 0.000000 -1.558687 19.090719 27.722829 -23.155008 -34.257823 -7.225359 -12.314577 21.867332 28.731592 0.000000 0.000000 0.000000 7.125000 0.000000 0.000000 20.567563 58.072510 -6.764984
-0.577051 18.678731 5.531694 -2.563113 -2.697563 -0.828809 0.000000 0.000000 0.000000 -12.159031 -6.073938 -0.888624 1.337811 7.323691 20.677959 1.489682 4.934317 -25.293731 8.182659 -16.251963 -53.217885 0.000000 0.000000 0.000000 0.000000 0.000000 0.000000 0.000000 0.000000 0.000000 0.000000 0.000000 0.000000 0.000000 0.000000 0.000000 -0.067692 0.894951 5.323063 0.544150 1.219739 -2.520109 0.479726 0.616363 -5.616191 -0.310997 -1.570706 -11.938064 3.386743 -2.845842 19.899344 0.878737 -1.038772 8.191944 0.000000 0.000000 0.000000 -0.189000 12.637740 -28.339966 19.997139 -30.638880 5.529883 4.335371 10.206071 25.677916 0.000000 0.000000 0.000000 -7.125000 0.000000 0.000000 -15.313498 4.994595 -14.459677 0.000000 0.000000 0.000000 -1.652930 19.119061 27.796816 -23.138605 -34.240008 -7.216090 -10.809980 21.051073 28.446791 0.000000 0.000000 0.000000 7.125000 0.000000 0.000000 21.902072 57.486180 -6.917274
-0.579651 18.678947 5.530465 -2.539934 -2.678634 -0.805756 0.000000 0.000000 0.000000 -12.192240 -6.173391 -0.875574 1.335649 7.317936 20.660702 1.485016 5.033228 -25.313803 8.198885 -16.263562 -53.275904 0.000000 0.000000 0.000000 0.000000 0.000000 0.000000 0.000000 0.000000 0.000000 0.000000 0.000000 0.000000 0.000000 0.000000 0.000000 -0.112838 0.887048 5.300890 0.566838 1.206954 -2.533256 0.530182 0.612179 -5.618668 -0.225570 -1.522526 -11.826956 3.271950 -2.767222 19.799298 0.835202 -1.009072 8.133703 0.000000 0.000000 0.000000 -0.245045 12.625913 -28.314230 19.968190 -30.604002 5.515125 4.395351 10.225112 25.736692 0.000000 0.000000 0.000000 -7.125000 0.000000 0.000000 -15.277884 4.932869 -14.441855 0.000000 0.000000 0.000000 -1.781301 19.139540 27.943617 -23.166867 -34.270760 -7.232004 -11.225468 21.212027 28.514589 0.000000 0.000000 0.000000 7.125000 0.000000 0.000000 21.527051 57.637499 -6.869325
-0.581977 18.679085 5.529146 -2.531339 -2.682901 -0.804422 0.000000 0.000000 0.000000 -12.205100 -6.233048 -0.849831 1.333277 7.311646 20.641946 1.486023 5.067701 -25.340486 8.186890 -16.254983 -53.233009 0.000000 0.000000 0.000000 0.000000 0.000000 0.000000 0.000000 0.000000 0.000000 0.000000 0.000000 0.000000 0.000000 0.000000 0.000000 -0.104180 0.893692 5.319534 0.574462 1.216883 -2.537190 0.531887 0.616961 -5.633664 -0.203688 -1.502237 -11.798004 3.224945 -2.731506 19.754701 0.819807 -0.996045 8.111755 0.000000 0.000000 0.000000 -0.288030 12.594415 -28.294244 19.948578 -30.580332 5.505139 4.394439 10.266742 25.791317 0.000000 0.000000 0.000000 -7.125000 0.000000 0.000000 -15.278357 4.880313 -14.457994 0.000000 0.000000 0.000000 -1.877426 19.113714 28.034856 -23.174269 -34.278784 -7.236192 -12.359021 21.796295 28.807807 0.000000 0.000000 0.000000 7.125000 0.000000 0.000000 20.575657 58.153088 -6.808572
-0.583379 18.678489 5.527952 -2.520329 -2.662691 -0.822920 0.000000 0.000000 0.000000 -12.212935 -6.224954 -0.840239 1.333753 7.312917 20.645781 1.484347 5.079054 -25.333985 8.197604 -16.262689 -53.271444 0.000000 0.000000 0.000000 0.000000 0.000000 0.000000 0.000000 0.000000 0.000000 0.000000 0.000000 0.000000 0.000000 0.000000 0.000000 -0.064842 0.900248 5.381627 0.563865 1.228522 -2.566732 0.496383 0.620990 -5.699107 -0.287126 -1.546528 -11.738531 3.289338 -2.788912 19.750721 0.849514 -1.023924 8.102804 0.000000 0.000000 0.000000 -0.276599 12.628184 -28.358003 19.948730 -30.580578 5.505249 4.263587 10.306750 25.798733 0.000000 0.000000 0.000000 -7.125000 0.000000 0.000000 -15.355854 4.884196 -14.535907 0.000000 0.000000 0.000000 -1.909419 19.149647 28.063669 -23.178969 -34.283943 -7.238874 -10.799864 21.024539 28.500253 0.000000 0.000000 0.000000 7.125000 0.000000 0.000000 21.947909 57.534350 -6.955418
-0.585672 18.678717 5.524411 -2.518316 -2.610110 -0.811815 0.000000 0.000000 0.000000 -12.190263 -6.215977 -0.899216 1.336243 7.319524 20.665513 1.479744 5.047601 -25.281792 8.190488 -16.257599 -53.245883 0.000000 0.000000 0.000000 0.000000 0.000000 0.000000 0.000000 0.000000 0.000000 0.000000 0.000000 0.000000 0.000000 0.000000 0.000000 -0.041249 0.885714 5.441098 0.564306 1.211426 -2.604254 0.484150 0.611663 -5.771905 -0.438651 -1.596899 -11.706056 3.428956 -2.857645 19.756176 0.914145 -1.054368 8.104299 0.000000 0.000000 0.000000 -0.266067 12.693863 -28.436451 19.981125 -30.619592 5.521727 4.172030 10.316665 25.704820 0.000000 0.000000 0.000000 -7.125000 0.000000 0.000000 -15.410306 4.982387 -14.562005 0.000000 0.000000 0.000000 -1.934746 19.180227 28.090507 -23.197219 -34.303765 -7.249147 -12.013630 21.758665 28.933314 0.000000 0.000000 0.000000 7.125000 0.000000 0.000000 21.018959 58.194756 -6.984766
